<svg xmlns="http://www.w3.org/2000/svg" xmlns:xlink="http://www.w3.org/1999/xlink" width="152.166" height="113.077" viewBox="0 0 152.166 113.077">
  <defs>
    <clipPath id="clip-path">
      <path id="path18" d="M61.033-82.666V-3.1H140.66V-82.666Z" transform="translate(-61.033 82.666)" fill="#fff"/>
    </clipPath>
    <clipPath id="clip-path-2">
      <path id="path28" d="M72.433-76.813v59.847h41.218V-76.813Z" transform="translate(-72.433 76.813)" fill="#fff"/>
    </clipPath>
    <clipPath id="clip-path-3">
      <path id="path38" d="M0-28.429V-2.883H152.165V-28.429Z" transform="translate(0 28.429)" fill="#fff" stroke="#fff" stroke-width="1.35"/>
    </clipPath>
  </defs>
  <g id="Group_448" data-name="Group 448" transform="translate(-835.264 -73)" opacity="0.87">
    <g id="Group_428" data-name="Group 428" transform="translate(871.566 73)">
      <g id="g16" transform="translate(0)" clip-path="url(#clip-path)">
        <path id="path22" d="M140.18-4.356c-.011.458.128.293.154.362C140.3-4.762,140.143-4.338,140.18-4.356Zm-.319-7.56.057.133-.141-1.114Zm0-7.071c-.24.669.039,2.563-.046,3.822l-.055.208.193.568c-.03-1.531-.16-3.518-.092-4.6Zm.52-3.769c-.094.232-.081-.814-.028.88.011-.081.015-.11.024-.16C140.378-22.188,140.379-22.4,140.382-22.757Zm0,.72C140.384-21.291,140.455-22.524,140.378-22.036Zm-.054-3.438.082.979c.056-.2.069-1.077.11-.752-.047-1.007-.1-.8-.192-.227Zm-.175-.931.035.509A1.082,1.082,0,0,0,140.149-26.4Zm.11,1.586-.075-1.077c-.039.142-.118.157.027.494C140.138-25.49,140.207-25.277,140.258-24.819Zm-.038.611c-.052.549-.083,1.261-.168.276C140.086-22.056,140.255-22.332,140.221-24.208Zm-.605,4.86-.07.735.081.637C139.585-18.294,139.69-19.394,139.615-19.348Zm.833-12.237c-.052-.061-.136.331-.2.4l.059.725a5.172,5.172,0,0,1,.143-1.128Zm-.2.4-.088-1.084C140.149-31.3,140.191-31.12,140.246-31.181Zm-.365,4.6.185,1.78-.187-2.124Zm.574-9.144.117.614-.178-1.094Zm-.022-2.746c.1.455.167-.624.227-.143a17.712,17.712,0,0,0-.178-1.956A12.427,12.427,0,0,1,140.433-38.469Zm-.06-3.061c.024.305.066.62.11.962C140.46-40.892,140.426-41.211,140.372-41.531Zm-.189,7.419a2.393,2.393,0,0,0,.147-.853l-.145.427C140.186-34.408,140.184-34.261,140.184-34.111Zm0-.412.005-.015c.005-.462.007-.784.009-.92C140.192-35.341,140.189-35.059,140.18-34.523Zm0,.519c0-.04,0-.069,0-.108A.129.129,0,0,0,140.182-34Zm-.169,4.583c-.081-.636-.167-1.965-.289-.68C139.821-29.643,139.892-30.379,140.013-29.421ZM140-33.474l-.033,1.152c.039-.024.094-.231.133.084Zm-.047-.564.047.564.011-.427Zm.282-5.52a16.022,16.022,0,0,1-.078-1.656c-.028.658-.043,1.339-.043,1.987C140.162-39.137,140.243-38.854,140.238-39.558Zm-.04,2.446c0-.035-.005-.075-.009-.11C140.178-37.154,140.174-37.1,140.2-37.112Zm-.038-10.153-.025.1.023.022Zm-.07,8.147a4.509,4.509,0,0,0,.052,1.073c-.008-.376-.017-.765-.024-1.183C140.1-39.27,140.083-39.277,140.09-39.118Zm.215-4.1c-.025.271-.052.558-.079.856A3.59,3.59,0,0,0,140.3-43.218Zm-.076,5.83.007.074C140.266-37.478,140.251-37.458,140.229-37.388Zm0,0c-.02-.255-.057-.455-.088-.657q.025.442.047.824A1.052,1.052,0,0,1,140.229-37.388ZM139.237-49.1a5.972,5.972,0,0,1,.114,2.512c.1,1.106.539.382.784-.582-.059-.034-.113-.034-.192-1.172-.072.4-.17,2.524-.291,1.564a6.481,6.481,0,0,1,.118-1.967c-.165.622-.241-1.917-.487-1.59l.088,1.321C139.333-48.984,139.272-49.463,139.237-49.1Zm.883,4.1.018.467a14.188,14.188,0,0,1,.181-1.619c-.066-.778-.115-.94-.16-.994l-.018,2.306Zm.018,2.569c-.146-.366-.206-1.491-.363-.8a9.424,9.424,0,0,0,.183,1.784c-.035-2.217.081.635.163-.966.014.448.027.831.038,1.2.022-.392.044-.776.066-1.146l-.008.05v.011l0,0c-.017.094-.029.126-.018.018,0-.011,0-.033,0-.046a.267.267,0,0,1-.056-.1c.031-.642.04-.1.056.1.006.007.02.027.02.027l0-.009-.081-2.22C140.117-44.061,140.122-43.473,140.138-42.429Zm-.728,11.144c.014-.068.024-.066.034-.071C139.426-31.5,139.415-31.554,139.41-31.285Zm.088-.913a3.178,3.178,0,0,1,.064.82c-.044.457-.069,0-.117.022.039.317.1,1.107.175.116l-.02-.158a9.312,9.312,0,0,1,.251-1.886A4.015,4.015,0,0,0,139.5-32.2Zm.284-5.181-.072-1.847-.125.941.074-.047C139.63-37.28,139.723-37.508,139.782-37.379Zm.451-10.1.152.245-.217-1.068Zm-.018-2.4.132.088-.079-.634Zm-77.44-5.273.037.542C62.8-54.856,62.783-55.019,62.775-55.151Zm.008-3.934-.065-.1C62.755-59,62.782-58.924,62.783-59.084Zm49.283-23.3c-.79-.125-1.672-.319-1.578-.168l.242.146a9.646,9.646,0,0,1,1.336.022Zm-40.335.873.23.044.533-.139Zm-.559.605L70.131-81C70.365-80.967,70.7-80.937,71.173-80.906Zm-8.243,47.24.148.635C63.078-34.023,63-33.587,62.929-33.666ZM140.16-74.492c.058-.683.081-1.226.088-1.7A5.27,5.27,0,0,0,140.16-74.492ZM61.225-56.7c.027.332.057.474.09.465C61.29-56.576,61.262-56.77,61.225-56.7Zm79.023-21.47c-.011.128-.022.238-.033.362.024.5.044,1,.033,1.611A7.98,7.98,0,0,0,140.248-78.169ZM110.123-4.828l.175.017C110.317-4.83,110.238-4.832,110.123-4.828Zm22.652,1.475-.93.011C132.013-3.332,132.292-3.332,132.775-3.353Zm7.5-56.194C140.288-59.039,140.3-59.467,140.279-59.547ZM139.7-57.07c-.017-.108-.037-.19-.071-.2A.4.4,0,0,1,139.7-57.07Zm-2.035-24.453h-.046C137.772-81.5,137.746-81.5,137.666-81.523Zm2.547,22.743c.011-.2.027-.418.042-.653C140.248-59.319,140.235-59.123,140.213-58.781Zm.068-.1c-.006.176-.01.313-.015.445C140.292-58.374,140.307-58.431,140.281-58.883Zm-.011-1.374c-.005.29-.01.56-.015.824.01-.1.018-.141.024-.114C140.277-59.7,140.273-59.909,140.27-60.257ZM68.46-4.438l.11.014C69.084-4.485,68.858-4.475,68.46-4.438ZM98.828-80.866l.059-.007-.075,0ZM97-80.756a5.253,5.253,0,0,1,1.81-.121l-.6-.422ZM62.817-45.732l.131-1.285c.216,1.55.141,2.673.327,1.466-.457-.182-.046-5-.5-5.176l.1-.848c.009.239.009.287.017.523.219-1.65-.329-1.224-.264-3.348.034-.741.1-1.257.155-.752L62.662-56.8c.009-.481.088-.363.08.114L62.7-59.2l.014.019c-.071-.36-.182-1.172-.229-1.568.066-.639.049.32.106.156l-.111-1.393c.117-.568.232.587.216,1.548.457-1.3-.115-1.155.151-3.962l.059,1.314a23.4,23.4,0,0,0,.326-3.36c-.084.353-.407,2.975-.521,1.465a8.925,8.925,0,0,0-.04-1.8c.163-.007.123-.8.112-1.8l.216.067a8.18,8.18,0,0,0-.268-1.625,3.147,3.147,0,0,1,.328-1.733c.033-1.922-.268,1.328-.308-.948a35.246,35.246,0,0,0-.135-4.635c.075-1.118.131.2.194-.205l-.172-.991c0-.243.058-.165.082-.125-.065-.836-.213-.069-.272-1.383a1.525,1.525,0,0,1,.02-.888c.354.045.549.1.961.119a7.309,7.309,0,0,0,1.475-.062c.4.06-.193.132-.07.216,2.227-.177,1.909-.13,3.738-.368L70.131-81c-1.143-.161.319-.354,1.6-.511l-.986-.179,2.045-.116c.246.035.04.11-.295.2l.376-.051c.73.079.352.2-.174.324l-.735-.133c-.5.132-.977.276-.871.4a6.053,6.053,0,0,1,.67-.059c-.132.035-.217.068-.156.09a2.7,2.7,0,0,0,.618-.079l.464.239.112-.094,2.675.15a55.786,55.786,0,0,1,6.613-.7c-.754.177-.161.289-.2.5-.829-.22-2.352.095-3.926.049.82.024.64.123.432.157l2.806-.2c-.062.17.595.128,1.328.2-.553-.338,2.093-.225,3.235-.329.071.115-.2.229-1.6.2,1.537.254,1.986-.4,3.5-.181A2.037,2.037,0,0,0,87-81.08c.8-.1,2.739-.02,2.281.077l-.34,0c2.259.04,6.875,0,7.214-.284.022.037-.3.345-.434.4l4.031-.966c-.355.246,1.007.833-.865.972a14.527,14.527,0,0,0,2.338-.011c-.367-.033-.915-.355-.414-.377,1.376.275.956.146,2.652.379-.55-.053.062-.439.93-.426-.136.059.072.383-.246.421l2.164-.377c-.54.068-.1.32.389.428-.224-.075,1.871.006,2.446-.033l-.917-.088c2.443.058,2.413-.533,4.837-.512-.295.078-.726.483.506.53a17.857,17.857,0,0,1,4.645-1.084l.411.111,1.645-.126c-1.025.293-3.9.906-5.468,1.146a6.481,6.481,0,0,0,1.624.122c.483.1-.747.158-1.149.163l3.186.068c-.141-.226,2.436-.227,2.315-.417l-3.46.236c-.141-.227,2-.644,4.259-.6.574.089-.43.4-.383.479a14.447,14.447,0,0,1,2.351-.094l-.957.121c1.256.086,2.051-.3,3.562-.084.521.015,1.555.291,1.647.158-.85-.259-1.016-1.058-.449-1.252.181.017,2.737.246,3.332.374.858.2-1.288.484-.558.658a2.325,2.325,0,0,1,.7-.164c.547.054-.227.192.962.166.2-.232,2.421.018.563-.2,1.164-.066,1.236.048,2.6.039-.433-.15,1.228-.505,2.394-.571-.069.059.191.134.319.169l1.643.03c-.038,1.37-.094,2.512-.1,4.151-.055.205-.123,1.281-.222.824a7.807,7.807,0,0,1,.125,1.3c-.2,1.332-.033-1.533-.269-.518a17.982,17.982,0,0,1,.268,2.756,12.331,12.331,0,0,0-.044-3.243c.283,0,.58,1.7.712,4.033.071,1.852-.184.8-.143,1.124-.049,3.478.5,2.964.291,5.852-.182,1.146-.361.052-.491.3-.068-1.507.116-2.314.108-3.338l-.084,1.259a12.091,12.091,0,0,1-.054-2.035c-.163.959-.032,5.875-.182,8.559.061.477.125,1.3.2.911l-.025-.85c.145-.78.2,1.6.269.523a26.062,26.062,0,0,1,.182,4.02l-.207.3a5.178,5.178,0,0,0,.06-1.5c.091.668-.279,2.458-.009,3.192l.143-1.125a28.821,28.821,0,0,1,.258,3.979c.2-.648-.024-.329.213-1.339-.3.876.013-3.634-.3-2.229.276-1.035.116-1.792.353-3.147-.068.042-.131.48-.1-.713a1.89,1.89,0,0,1-.059-.261c0-.035,0-.049.005-.081l-.009.066c-.01-.053-.013-.056,0,.025a3.03,3.03,0,0,1-.1.606c-.156-.591-.151-2.488-.232-3.131.031-.708.077.3.149-.09l-.121-.959c.152-.095.251-1.879.34-.212l.006-1.5a18.389,18.389,0,0,0,.056-2.849c.031-.708-.169-1.789-.049-1.172l-.094-2.353.037-.022a73.234,73.234,0,0,1,.024-7.436c-.017-.395-.034-.794-.053-1.251,0-.233,0-.481-.006-.752,0-.357.01-.747.017-1.182l.131-.487c0-.3,0-.627-.006-1l-2.622-.048a5.206,5.206,0,0,0-1.169.046c-1.08-.352-4.862-.077-6.624-.14l-.065.172c-1.213-.011-2.376.039-3.882.106l.093.152c-1.3.125-3.336-.108-5.39-.093a3.656,3.656,0,0,1,1.029-.006c-2.452-.343-5.175.248-7.4,0a6.48,6.48,0,0,1-1.344,0l.138-.007c-.057,0-.141,0-.229,0-.246-.027-.5-.053-.769-.081.232.037.455.068.648.081-.427,0-1.077.022-1.711.059l-.271-.162-.147.005c-.623-.062-.5.075-.168.2-.319.027-.613.06-.842.1-.506-.263-1.667.088-2.359-.19-.427.134-3.194.1-3.532.388-.022-.038-.209-.054.134-.058a12.356,12.356,0,0,0-2.052.018l-.3-.208-1.546.278c-.94-.126-1.329-.2-.4-.357-2.254.243-1.828.091-3.745.333l.093-.133a14.891,14.891,0,0,1-2.193.072c-1.532-.253-7.582-.035-11.515-.271.764.394-1.827-.176-1.983.13-.229-.093-.777-.147-.14-.226a35.5,35.5,0,0,0-4.4.108c-.229-.092.429-.134.225-.19a3.12,3.12,0,0,1-.847.025c-.205-.055.295-.079.611-.118-2.049.016-2.258.3-2.4.57a5.739,5.739,0,0,0-2.309.068c-.361-.088-.966-.181.31-.211-.719-.014-4.379-.13-4.452.086a5.791,5.791,0,0,0-1.191.008L63.9-82,61.9-82l.605.035a2.368,2.368,0,0,1-.809.133c.007.293-.011.6-.025.973-.005.192-.011.394-.018.612v.573l-.027-.037c-.186,2.925.091,1.263-.123,4.149l.161-.157c.347.269-.2,2.558-.071,4.234l.092-.606c.118.915-.472,2.558-.516,3.476-.031.2-.049-.317-.071-.6-.205,2.406.212.311.261,2.1-.115.33-.29-.426-.311.78-.093.6.37,3.5.151,5.145.088-.362.175-.723.242.11.031,1.277-.333,3.45-.055,4.6-.024.162-.046.224-.069.231.07.975.119,3.169.268,3.756-.558.9.271,6.066-.244,6.044l.029,3-.052-.078a13.876,13.876,0,0,0,.211,3.271c-.035.443-.082.117-.11.082a26.355,26.355,0,0,0,.174,5.43l-.167.245c.1.637-.262,4.051-.068,6.8a.655.655,0,0,1-.074-.3c.2,3.092-.462,7.4.145,8.535l.15,2.042c.046-2.64.262.393.363-.693.037,1.039-.184,2.684-.214,1.408l.031-.2c-.317-.469-.113,3.281-.328,3.21q-.016,2.467-.031,4.893c-.026,1.836-.053,3.657-.079,5.452l6.079.064-.561-.247,1.694.015c.446.057.6.192-.611.182a5.65,5.65,0,0,0,2.061-.17c2.365.1-.924.289-.2.294l.986-.018-.222-.029a10.416,10.416,0,0,1,2.322-.2c.919.049.471.152.833.162,0,.017.12.024.556.006l2.133.022-.853-.2c.945-.1,2.007.011,1.022-.211,1.445.341,7.959.123,8.848.229a35.771,35.771,0,0,1,4.251-.123c-.4-.04-.643-.26.754-.232-.51.452,2.558.2,3.688.521-1.01-.216,3.971-.054,2.388-.36,1.166.038.071.169.955.275,2.774-.174,6.116.114,9.544.055.054-.059-.52-.15.216-.239l1.812.3c.676-.028.622-.342,1.86-.136-.175-.049-.435-.125.018-.144,6.719.289,13.73-.236,20.553.307-.924-.116-.308-.126.4-.132-.46-.026.01-.146-.081-.226l2.857.222c.521-.222,3.063-.015,3.36-.227l-.9.037c1.2-.251-1.683-.56-1.508-.882-1.346.287-3.552-.425-5.762-.015-.488-.066.416-.1.155-.179a8.622,8.622,0,0,1-2.489.106l.141-.035c-3.521.034-5.032-.1-8.989-.192l.293.159a11.741,11.741,0,0,1-1.428-.111c-.976.243,2.389.013,1.5.282-1.129-.325-6-.005-6.76-.375-1.309,0,.383.184-.924.182l-.347-.1-.332.128c-.857-.02-1.29-.146-1.322-.231.209.011.592-.024.814-.03-1.112-.118-3.136.04-3.518,0l1.256.06c-3.569.094-7.928-.037-11.377.167l.263.074c-2.635.14-2.11-.082-5-.018l.1-.017a16.3,16.3,0,0,1-2.142.1c.731-.089-1.374-.172-.417-.269a14.411,14.411,0,0,0-3.3.4l-.434-.125a9.118,9.118,0,0,1-2.141.2c1.184-.107-.922-.191.405-.332-3.03-.273-4.5.276-5.89-.123-1.392.346,2.623.192,1.843.266.652.113-1.148.258-2.1.225a30.544,30.544,0,0,0-4.082-.437c.234-.011.268-.011.5-.024-.912-.088-1.787.12-2.9-.024-.627.21-1.451-.011-1.633.255L71.792-4.5a25.812,25.812,0,0,1-4.539.23,9.591,9.591,0,0,1,1.209-.164c-.611-.079-1.176.053-1.808-.028.182-.268,2.716-.06,4.073-.261-.655-.113-2.567.192-1.885-.1-.979.367-2.4-.046-4.048.234l.109-.16a11.582,11.582,0,0,1-1.282.1l.869-.207a7.167,7.167,0,0,1-1.235.044,1.865,1.865,0,0,1-.371-.086A.989.989,0,0,0,62.9-5.34a1.217,1.217,0,0,1-.047.468c.084.066-.372.183-.054.262l-.231.024a3.982,3.982,0,0,1,.009-.91,5.918,5.918,0,0,1,.149-.832,10.363,10.363,0,0,0,.205-2.889c.022.5-.1,1.887-.169,1.1a19.344,19.344,0,0,1,.178-2.072c-.034-2.459-.165.376-.262-.669.195-.838-.079-1.207-.141-2.286l.162-.007c.1-2.8-.339-.743-.212-3.265l.226,1.067-.059-1.315.185.271a19.264,19.264,0,0,1-.051-3.279c-.114.327-.294-.181-.3-1.422.1-.847.154.474.132-1.286a3.152,3.152,0,0,1,.081,1.6c.052.079.1.391.153.472a25.62,25.62,0,0,0,.024-2.927,6.6,6.6,0,0,1-.037.688L62.613-25.1c.061-.4.109-.082.158.233-.018-.518-.092-.873-.106-1.634.132.2.267.15.33,1.224L62.849-27.7c.057-.162.158-1.246.207-.931.077-1.347-.257-3.3-.155-5.09a3.725,3.725,0,0,1-.069-.657,41.741,41.741,0,0,0,.011-5.156l.236-1.128c-.053-1.558-.3,1.527-.387-1.066-.075-1.837.2-.686.268-1.33a16.818,16.818,0,0,1-.168-4.188c.042.558.009,1,.025,1.518Zm-.1-19.213a5.19,5.19,0,0,1,.044,1.387A2.615,2.615,0,0,1,62.713-64.945ZM74.553-81.2a4.206,4.206,0,0,1-1.185-.034A9.2,9.2,0,0,1,74.553-81.2Zm65.593,16.065-.007-.039C140.2-66,140.178-65.71,140.145-65.135Zm-.07,1.725c.023.174.045.161.068.088a4.418,4.418,0,0,1-.033-.948A2.337,2.337,0,0,0,140.075-63.41ZM73.894-3.344l-.335-.042C74.316-3.432,74.1-3.39,73.894-3.344ZM71.248-80.977a.24.24,0,0,1-.158-.088C70.944-81.038,70.941-81.005,71.248-80.977ZM62.9-33.782l0,.057a.113.113,0,0,0,.028.059Zm67.9-47.1a4.419,4.419,0,0,1-.683-.084C130.1-80.927,130.262-80.893,130.8-80.881Zm9.549,26.608-.044-1.1a6.749,6.749,0,0,1-.052,1C140.293-54.406,140.349-54.618,140.352-54.272Zm-1.007,9.588c.009.183.016.318.024.5l.076-.046C139.441-44.914,139.378-45.4,139.346-44.685Zm.467-8.564c-.137.088-.091.781-.066,1.555v-.139C139.938-51.6,139.874-52.428,139.813-53.249Zm-.062,1.733c0,.241,0,.481,0,.715C139.833-50.71,139.771-51.091,139.751-51.516Zm.414-9.707c-.035.368.175.231.119.438C140.459-60.376,140.075-63.232,140.165-61.223Zm-.8,8.6.169-.276-.136-.434Zm.124-6.108-.047,1.235c.028-.018.046.139.059.332A11.462,11.462,0,0,0,139.486-58.731Zm.01,1.568a9.125,9.125,0,0,0,.029.994C139.518-56.383,139.506-56.834,139.5-57.164Zm-.185,2.851.035-.366.014-.874Zm.207-17.71-.047-1.349c-.059-.137-.094.231-.07.734.04.322.062.822.117.615Zm-.461,4.082a2.248,2.248,0,0,1,.127-.6l-.208-.041Zm-.049-3.935c-.059-.135-.167-1.958-.153-.247C138.912-71.988,138.961-70.636,139.008-71.877ZM128.72-81.456l.344,0-.049-.342Zm-17.879.82c1.6.082.378-.211,1.821-.11.375-.081-1.179-.083-.794-.153C110.9-80.812,110.4-80.861,110.841-80.635Zm1.026-.262.491-.053C112.079-80.928,111.949-80.912,111.868-80.9ZM136.534-3.168l1.026.071-.662-.115Zm1.97-.254.242.219.616-.2A4.027,4.027,0,0,1,138.5-3.423ZM63.151-67.8l-.052-.077a3.357,3.357,0,0,0-.071.882Zm-.163,13.944.005-.239-.2.448Zm.253,11.7c-.009-.476-.018-1.041-.029-1.519.038,1.042-.218,1.649.029,1.519" transform="translate(-61.033 82.666)" fill="#fff"/>
      </g>
      <g id="g26" transform="translate(19.204 9.861)" clip-path="url(#clip-path-2)">
        <path id="path32" d="M72.433-65.583h0q0-1.754,2.748-4.92h0q2.406-.833,2.474-.863h0a4.59,4.59,0,0,1,1.9-.205h0a2.281,2.281,0,0,1,.723.392h0a2.013,2.013,0,0,0,.754.391h0q.243-.068.274-.166h0l-.068-.274h0a13.926,13.926,0,0,0,1.427-.177h0q1.154-.167,1.32-.167h0a5.748,5.748,0,0,1,.773.137h0a5.857,5.857,0,0,0,.782.138h0a2.329,2.329,0,0,0,.7-.246h0a2.24,2.24,0,0,1,.7-.245h0q.167,0,1.164-.068h0q1-.069,1.173-.068h0a4.036,4.036,0,0,1,2.611.833h0q.753,0,1.026-1.107h0q.45-1.724.519-1.862h0q1.036-1.509,1.682-1.617h0q.215-.029,2.239-.686h0a12.977,12.977,0,0,1,1.721-.45h0a6.219,6.219,0,0,1,1.956.862h0q1.545.687,1.682,1h0q-1.916,2.793-4.361,6.477h0q.861,1.657.86,1.686h0c.02.138.043.356.068.657h0c.02.3.043.529.068.685h0a4.164,4.164,0,0,1-.156,1.039h0a8.1,8.1,0,0,0-.186.961h0a5.894,5.894,0,0,1-1.27,1.617h0q-.382.382-.695.715h0q-.3.324-.479.529h0l-.166.177h0a10.165,10.165,0,0,0-1,2.235h0q-.724,1.823-.929,1.822h0a1.914,1.914,0,0,1-1.017-.568h0a3.064,3.064,0,0,1-.88-1.049h0q-.235-1.067-1.271-4.234h0a9.1,9.1,0,0,0-2.23-2.586h0a9.708,9.708,0,0,0-2.895-1.137h0a8.8,8.8,0,0,0-2.406-.411h0a1.479,1.479,0,0,0-.5.137h0a1.39,1.39,0,0,1-.5.138h0a.661.661,0,0,1-.411-.255h0a.626.626,0,0,0-.411-.264h0a3.445,3.445,0,0,0-1.34.794h0a9.85,9.85,0,0,0-.928.706h0q-.245.225-.255.313h0a2.339,2.339,0,0,0-.019.392h0a8.284,8.284,0,0,0,.723,3.175h0q.3.754.617,1.529h0q.312.774.411,1.039h0c.071.169.117.255.137.255h0a1.319,1.319,0,0,0,.176-.48h0q2.132,2.235,8.283,5.341h0q1.79.824,5.4,2.5h0q3.609,1.666,5.4,2.46h0a37.737,37.737,0,0,1,8.733,5.2h0a12.912,12.912,0,0,1,4.362,7.919h0a8.2,8.2,0,0,1-.117,1.039h0c-.078.5-.118.79-.118.861h0q0,1.373-4.058,5.645h0q-3.991,4.312-6.014,5.341h0a54.989,54.989,0,0,1-9.221,4.037h0a22.21,22.21,0,0,0-3.843,1h0q-.245-.039-.861-.069h0q-.616-.038-.929-.078h0a2.391,2.391,0,0,0-.723.353h0a2.244,2.244,0,0,1-.754.343h0a7.088,7.088,0,0,1-.968-.7h0L83.3-18.309h0a3.97,3.97,0,0,1-2.611-1.9h0q-.243-.372-1-.274h0a14.778,14.778,0,0,0-1.174-1.823h0a4.2,4.2,0,0,1-.234-1.479h0a4.678,4.678,0,0,1-.969-1.657h0a1.024,1.024,0,0,0-.86-.549h0q-.441-.559-.342-.863h0a4.843,4.843,0,0,0,.293-.432h0c.1-.176.169-.287.2-.333h0q0,.216-.626.216h0q-.3,0-.206-.627h0q2.582-5.507,12.175-14.4h0q-.274.275-2.689,4.165h0a2.907,2.907,0,0,1-.068,1.754h0q-.1.216-1.819,3.244h0A49.552,49.552,0,0,0,81.82-28.1h0a5.868,5.868,0,0,1,1.34.834h0a3.829,3.829,0,0,0,1.271.784H86.6q2.885,0,10.757-2.753h0q.1-.07.948-.872h0q.841-.813,1.046-.813h0a.816.816,0,0,1,.294.048h0c.078.039.133.069.166.089h0a.292.292,0,0,1,.089.088h0c.025.033.048.049.068.049h0q.586-1.754,1.34-1.754h0a1.565,1.565,0,0,1,.469.1h0a1.439,1.439,0,0,0,.46.108h0a9.115,9.115,0,0,0,2.514-1.823h0l1.2-.863h0a3.661,3.661,0,0,1,.45-1.7h0q.029-.068.568-.735h0a2.076,2.076,0,0,0,.527-.95h0q0-2.48-7.324-6.438h0q-6.328-3.449-7.6-3.449h0a.285.285,0,0,0-.255.137h0a.26.26,0,0,1-.225.137h0c-.118,0-.238-.124-.362-.372h0c-.124-.255-.244-.383-.362-.383h0c-.11,0-.179.082-.205.246h0c-.019.156-.088.235-.205.235h0a.968.968,0,0,1-.547-.3h0q-.342-.313-.45-.313h0a21.493,21.493,0,0,1-6.327-2.753h0q-.3-.108-1.682-.726h0a11.529,11.529,0,0,0-.723-1.411h0a.663.663,0,0,1-.617.274h0q-1.133,0-3.305-2.587h0q-.753-.755-2.4-2.754h0q-2.474-4-2.474-6.86" transform="translate(-72.433 76.813)" fill="#fff"/>
      </g>
    </g>
    <g id="g36" transform="translate(835.264 160.53)" clip-path="url(#clip-path-3)">
      <path id="path42" d="M9.55-27.186v1.243a6.147,6.147,0,0,0-4.225-1.638h0a4.778,4.778,0,0,0-3.126.988h0A3.245,3.245,0,0,0,.986-23.94h0a3.95,3.95,0,0,0,2.113,3.3h0l4.085,2.681h0A8.073,8.073,0,0,1,9.55-15.825h0a4.352,4.352,0,0,1,.677,2.443h0A4.362,4.362,0,0,1,8.72-10.053h0A5.877,5.877,0,0,1,4.593-8.669h0A8.426,8.426,0,0,1,0-10.026v-1.239A6.849,6.849,0,0,0,4.593-9.516h0a4.962,4.962,0,0,0,3.478-1.145h0a3.559,3.559,0,0,0,1.252-2.721h0q0-2.117-2.59-3.783h0l-4-2.627h0A4.888,4.888,0,0,1,.086-23.94h0A4.264,4.264,0,0,1,1.451-27.1h0A5.46,5.46,0,0,1,5.41-28.429h0A6.871,6.871,0,0,1,9.55-27.186ZM23.86-10.955v1.043a6.85,6.85,0,0,1-3.975,1.243h0a6.711,6.711,0,0,1-4.941-2.019h0a6.778,6.778,0,0,1-2.015-4.983h0a6.741,6.741,0,0,1,2.015-4.952h0a6.711,6.711,0,0,1,4.941-2.019h0a7.007,7.007,0,0,1,3.975,1.184v1.1A5.87,5.87,0,0,0,19.886-21.8h0a5.792,5.792,0,0,0-4.307,1.78h0a5.955,5.955,0,0,0-1.749,4.344h0A5.992,5.992,0,0,0,15.578-11.3h0a5.792,5.792,0,0,0,4.307,1.78h0A5.741,5.741,0,0,0,23.86-10.955Zm3.576-11.4h.845V-8.952h-.845Zm-.395-4.571h0a.824.824,0,0,1,.239-.607h0a.8.8,0,0,1,.579-.239h0a.82.82,0,0,1,.607.239h0a.824.824,0,0,1,.239.607h0a.787.787,0,0,1-.239.577h0a.822.822,0,0,1-.607.239h0a.8.8,0,0,1-.579-.239h0A.787.787,0,0,1,27.041-26.931Zm18.168,11.8H32.788a6.109,6.109,0,0,0,1.831,4.022h0a5.508,5.508,0,0,0,4,1.6h0a6.762,6.762,0,0,0,2.832-.635h0a8.013,8.013,0,0,0,2.269-1.482v1.184a8.248,8.248,0,0,1-5.1,1.78h0a6.385,6.385,0,0,1-4.788-2.019h0a6.914,6.914,0,0,1-1.94-4.983h0a6.9,6.9,0,0,1,1.929-4.952h0a6.335,6.335,0,0,1,4.773-2.019h0a6.437,6.437,0,0,1,4.761,1.933h0a6.6,6.6,0,0,1,1.917,4.842h0A4.321,4.321,0,0,1,45.21-15.134Zm-2.52-5.038h0a5.675,5.675,0,0,0-4.1-1.623h0a5.456,5.456,0,0,0-4.057,1.666h0a6.117,6.117,0,0,0-1.745,4.148H44.364a5.578,5.578,0,0,0-1.675-4.191Zm5.872-2.188h.845v2.568a4.527,4.527,0,0,1,4.534-2.85h0a5.05,5.05,0,0,1,3.9,1.568h0a5.717,5.717,0,0,1,1.451,4.05v8.073h-.845v-8.073a4.886,4.886,0,0,0-1.224-3.446h0a4.287,4.287,0,0,0-3.31-1.325h0a4.258,4.258,0,0,0-3.255,1.27h0a4.86,4.86,0,0,0-1.252,3.332v8.241h-.845Zm17.069.761V-8.952h-.845V-21.6H61.8v-.761h2.985v-3.7l.845-.341v4.038h3.016v.761Zm5.692-.761h.845V-8.952h-.845Zm-.4-4.571h0a.824.824,0,0,1,.239-.607h0a.787.787,0,0,1,.579-.239h0a.815.815,0,0,1,.6.239h0a.817.817,0,0,1,.243.607h0a.781.781,0,0,1-.243.577h0a.817.817,0,0,1-.6.239h0a.789.789,0,0,1-.579-.239h0A.787.787,0,0,1,70.928-26.931Zm12.226,5.163v1.188A4.857,4.857,0,0,0,79.942-21.8h0a3.425,3.425,0,0,0-2.253.678h0a2.2,2.2,0,0,0-.818,1.776h0a1.9,1.9,0,0,0,.379,1.215h0a4.836,4.836,0,0,0,1.256,1.016h0l2.817,1.721h0q2.336,1.412,2.336,3.305h0a2.96,2.96,0,0,1-1.2,2.525h0a5.03,5.03,0,0,1-3.082.89h0a6.5,6.5,0,0,1-3.466-.988v-1.215a5.265,5.265,0,0,0,3.521,1.356h0a3.878,3.878,0,0,0,2.437-.69h0a2.2,2.2,0,0,0,.888-1.823h0q0-1.384-1.89-2.513h0l-2.9-1.776h0a3.5,3.5,0,0,1-2-2.991h0A3.065,3.065,0,0,1,77.027-21.7h0a4.344,4.344,0,0,1,3-.945h0A5.642,5.642,0,0,1,83.154-21.768Zm6.024.169V-8.952h-.845V-21.6H85.348v-.761h2.985v-3.7l.845-.341v4.038h3.016v.761ZM96.306-8.952h-.845v-19.2H100.2a5.859,5.859,0,0,1,4.155,1.455h0a5.194,5.194,0,0,1,1.561,4h0a5.143,5.143,0,0,1-1.561,3.979h0a5.9,5.9,0,0,1-4.155,1.439H96.306ZM103.685-19.2h0a4.357,4.357,0,0,0,1.326-3.47h0a4.479,4.479,0,0,0-1.338-3.517h0a5.013,5.013,0,0,0-3.478-1.2H96.306v9.347H100.2A5.1,5.1,0,0,0,103.685-19.2Zm6.056-1.353v-1.015a7.364,7.364,0,0,1,3.776-1.075h0a4.91,4.91,0,0,1,3.325,1.145h0a4.393,4.393,0,0,1,1.322,3.513v9.033h-.845V-10.9a4.54,4.54,0,0,1-1.674,1.611h0a4.767,4.767,0,0,1-2.41.62h0a5,5,0,0,1-3.564-1.313h0a4.3,4.3,0,0,1-1.393-3.258h0a4.208,4.208,0,0,1,1.424-3.246h0a5.031,5.031,0,0,1,3.533-1.3h0a4.844,4.844,0,0,1,2.437.651h0a4.187,4.187,0,0,1,1.647,1.552v-2.372a3.567,3.567,0,0,0-1.138-2.866h0a3.984,3.984,0,0,0-2.664-.972h0A6.641,6.641,0,0,0,109.741-20.553Zm-.563,7.312h0A3.412,3.412,0,0,0,110.39-10.6h0a4.126,4.126,0,0,0,2.844,1.086h0A4.168,4.168,0,0,0,116.11-10.6h0a3.418,3.418,0,0,0,1.208-2.638h0a3.391,3.391,0,0,0-1.224-2.6h0a4.142,4.142,0,0,0-2.86-1.1h0a4.1,4.1,0,0,0-2.86,1.09h0a3.4,3.4,0,0,0-1.2,2.611Zm25.1-5.591V-22.36h.845V-9.32A6.214,6.214,0,0,1,133.276-4.7h0a6.3,6.3,0,0,1-4.6,1.819h0a9.459,9.459,0,0,1-4.929-1.325v-1.1A7.371,7.371,0,0,0,125.91-4.2h0a8.506,8.506,0,0,0,2.789.466h0a5.4,5.4,0,0,0,3.986-1.6h0a5.425,5.425,0,0,0,1.592-4v-3.47a6.313,6.313,0,0,1-2.339,2.725h0a6.4,6.4,0,0,1-3.549,1h0a6.556,6.556,0,0,1-4.8-1.948h0a6.535,6.535,0,0,1-1.955-4.826h0a6.6,6.6,0,0,1,1.955-4.826h0a6.51,6.51,0,0,1,4.8-1.976h0a6.261,6.261,0,0,1,3.549,1.031h0a6.462,6.462,0,0,1,2.339,2.78Zm0,2.992h0a5.736,5.736,0,0,0-1.677-4.207h0a5.675,5.675,0,0,0-4.21-1.694h0a5.639,5.639,0,0,0-4.182,1.694h0a5.737,5.737,0,0,0-1.679,4.207h0a5.824,5.824,0,0,0,1.679,4.25h0a5.62,5.62,0,0,0,4.182,1.706h0a5.656,5.656,0,0,0,4.21-1.706h0A5.823,5.823,0,0,0,134.278-15.84Zm17.829.706H139.685a6.1,6.1,0,0,0,1.831,4.022h0a5.508,5.508,0,0,0,4,1.6h0a6.762,6.762,0,0,0,2.832-.635h0a8,8,0,0,0,2.268-1.482v1.184a8.243,8.243,0,0,1-5.1,1.78h0a6.387,6.387,0,0,1-4.789-2.019h0a6.912,6.912,0,0,1-1.94-4.983h0a6.9,6.9,0,0,1,1.928-4.952h0a6.338,6.338,0,0,1,4.773-2.019h0a6.44,6.44,0,0,1,4.761,1.933h0a6.6,6.6,0,0,1,1.917,4.842h0A4.37,4.37,0,0,1,152.107-15.134Zm-2.52-5.038h0a5.677,5.677,0,0,0-4.1-1.623h0a5.456,5.456,0,0,0-4.057,1.666h0a6.111,6.111,0,0,0-1.745,4.148h11.577a5.578,5.578,0,0,0-1.675-4.191" transform="translate(0 28.429)" fill="#fff" stroke="#fff" stroke-width="1.35"/>
    </g>
  </g>
</svg>
